<svg version="1.0" viewBox="0 0 300.000000 65.000000" xmlns="http://www.w3.org/2000/svg">
    <g transform="translate(0.000000,65.000000) scale(0.050000,-0.050000)" fill="#8f2424" stroke="none">
        <path d="M3780 890 l0 -410 90 0 90 0 0 169 0 169 74 14 c143 27 200 -42 204 -247 l2 -105 90 0 90 0 0 125 c0 297 -170 458 -399 378 l-61 -21 0 169 0 169 -90 0 -90 0 0 -410z"/>
        <path d="M281 1205 c-148 -76 -204 -257 -117 -385 44 -66 103 -103 321 -201 65 -29 99 -58 107 -91 20 -77 208 -73 208 5 0 104 -69 177 -245 256 -186 85 -235 121 -235 174 0 104 145 146 307 88 l77 -27 28 67 c37 90 38 87 -41 120 -98 41 -324 38 -410 -6z"/>
        <path d="M1098 954 c-119 -62 -202 -218 -194 -364 l6 -100 95 -6 c75 -5 95 0 95 25 0 26 37 31 252 31 l253 0 -14 115 c-35 289 -254 423 -493 299z m262 -154 c87 -87 56 -120 -110 -120 -169 0 -189 23 -101 111 61 61 155 65 211 9z"/>
        <path d="M1860 987 c-72 -15 -86 -35 -71 -104 l14 -60 133 11 c144 12 182 -8 213 -108 12 -42 7 -44 -107 -43 -183 1 -322 -71 -322 -167 0 -46 162 -52 199 -7 51 61 221 61 221 0 0 -21 25 -29 90 -29 l90 0 0 165 c-1 294 -149 404 -460 342z"/>
        <path d="M2630 974 l-100 -24 -6 -235 -5 -235 100 0 101 0 0 169 c0 192 11 204 167 180 l87 -13 12 76 c7 42 10 79 6 82 -20 21 -277 21 -362 0z"/>
        <path d="M3290 973 c-139 -63 -240 -246 -226 -409 6 -74 6 -74 106 -80 l100 -6 -7 118 c-11 194 121 287 310 218 47 -17 90 111 50 151 -33 33 -266 39 -333 8z"/>
        <path d="M4790 967 c-146 -78 -210 -189 -210 -366 l0 -121 102 0 c83 0 100 6 91 30 -10 26 24 30 238 30 l249 0 0 87 c0 282 -244 459 -470 340z m249 -180 c73 -93 58 -107 -118 -107 -144 0 -158 4 -147 35 45 128 190 167 265 72z"/>
        <path d="M5528 973 c-292 -134 -70 -493 304 -493 l109 0 -30 57 c-18 36 -66 74 -125 101 -180 80 -196 91 -196 143 0 48 4 49 144 46 l144 -2 13 59 c7 33 5 68 -6 79 -34 34 -289 41 -357 10z"/>
        <path d="M100 210 l0 -150 2920 0 2920 0 0 150 0 150 -2920 0 -2920 0 0 -150z"/>
    </g>
</svg>
